<svg xmlns="http://www.w3.org/2000/svg" xmlns:xlink="http://www.w3.org/1999/xlink" aria-hidden="true" role="img" class="iconify iconify--logos" width="31.88" height="32" preserveAspectRatio="xMidYMid meet" viewBox="0 0 256 257"><defs><linearGradient id="IconifyId1813088fe1fbc01fb466" x1="-.828%" x2="57.636%" y1="7.652%" y2="78.411%"><stop offset="0%" stop-color="#41D1FF"></stop><stop offset="100%" stop-color="#BD34FE"></stop></linearGradient><linearGradient id="IconifyId1813088fe1fbc01fb467" x1="43.376%" x2="50.316%" y1="2.242%" y2="89.03%"><stop offset="0%" stop-color="#FFEA83"></stop><stop offset="8.333%" stop-color="#FFDD35"></stop><stop offset="100%" stop-color="#FFA800"></stop></linearGradient></defs><path fill="url(#IconifyId1813088fe1fbc01fb466)" d="M255.153 37.938c-11.49-13.34-32.658-13.34-44.149 0l-49.197 56.994c-7.699 8.934-7.699 22.064 0 30.998l49.197 56.994c11.49 13.342 32.658 13.342 44.149 0l49.196-56.994c7.699-8.934 7.699-22.064 0-30.998l-49.196-56.994Z"></path><path fill="url(#IconifyId1813088fe1fbc01fb467)" d="M255.153 37.938c-11.49-13.34-32.658-13.34-44.149 0l-49.197 56.994c-7.699 8.934-7.699 22.064 0 30.998l49.197 56.994c11.49 13.342 32.658 13.342 44.149 0l49.196-56.994c7.699-8.934 7.699-22.064 0-30.998l-49.196-56.994Z"></path></svg>
